<svg width="68" height="68" viewBox="0 0 68 68" fill="none" xmlns="http://www.w3.org/2000/svg">
<g filter="url(#filter0_d_1018_10065)">
<rect x="10" y="6" width="48" height="48" rx="24" fill="#17D89B"/>
<path d="M37.125 30.625C37.125 31.4538 36.7958 32.2487 36.2097 32.8347C35.6237 33.4208 34.8288 33.75 34 33.75C33.1712 33.75 32.3763 33.4208 31.7903 32.8347C31.2042 32.2487 30.875 31.4538 30.875 30.625C30.875 29.7962 31.2042 29.0013 31.7903 28.4153C32.3763 27.8292 33.1712 27.5 34 27.5C34.8288 27.5 35.6237 27.8292 36.2097 28.4153C36.7958 29.0013 37.125 29.7962 37.125 30.625Z" fill="white"/>
<path d="M26.5 25C25.837 25 25.2011 25.2634 24.7322 25.7322C24.2634 26.2011 24 26.837 24 27.5V35C24 35.663 24.2634 36.2989 24.7322 36.7678C25.2011 37.2366 25.837 37.5 26.5 37.5H41.5C42.163 37.5 42.7989 37.2366 43.2678 36.7678C43.7366 36.2989 44 35.663 44 35V27.5C44 26.837 43.7366 26.2011 43.2678 25.7322C42.7989 25.2634 42.163 25 41.5 25H40.035C39.372 24.9999 38.7362 24.7364 38.2675 24.2675L37.2325 23.2325C36.7638 22.7636 36.128 22.5001 35.465 22.5H32.535C31.872 22.5001 31.2362 22.7636 30.7675 23.2325L29.7325 24.2675C29.2638 24.7364 28.628 24.9999 27.965 25H26.5ZM27.125 27.5C26.9592 27.5 26.8003 27.4342 26.6831 27.3169C26.5658 27.1997 26.5 27.0408 26.5 26.875C26.5 26.7092 26.5658 26.5503 26.6831 26.4331C26.8003 26.3158 26.9592 26.25 27.125 26.25C27.2908 26.25 27.4497 26.3158 27.5669 26.4331C27.6842 26.5503 27.75 26.7092 27.75 26.875C27.75 27.0408 27.6842 27.1997 27.5669 27.3169C27.4497 27.4342 27.2908 27.5 27.125 27.5ZM38.375 30.625C38.375 31.7853 37.9141 32.8981 37.0936 33.7186C36.2731 34.5391 35.1603 35 34 35C32.8397 35 31.7269 34.5391 30.9064 33.7186C30.0859 32.8981 29.625 31.7853 29.625 30.625C29.625 29.4647 30.0859 28.3519 30.9064 27.5314C31.7269 26.7109 32.8397 26.25 34 26.25C35.1603 26.25 36.2731 26.7109 37.0936 27.5314C37.9141 28.3519 38.375 29.4647 38.375 30.625Z" fill="white"/>
</g>
<defs>
<filter id="filter0_d_1018_10065" x="0" y="0" width="68" height="68" filterUnits="userSpaceOnUse" color-interpolation-filters="sRGB">
<feFlood flood-opacity="0" result="BackgroundImageFix"/>
<feColorMatrix in="SourceAlpha" type="matrix" values="0 0 0 0 0 0 0 0 0 0 0 0 0 0 0 0 0 0 127 0" result="hardAlpha"/>
<feOffset dy="4"/>
<feGaussianBlur stdDeviation="5"/>
<feComposite in2="hardAlpha" operator="out"/>
<feColorMatrix type="matrix" values="0 0 0 0 0 0 0 0 0 0 0 0 0 0 0 0 0 0 0.25 0"/>
<feBlend mode="normal" in2="BackgroundImageFix" result="effect1_dropShadow_1018_10065"/>
<feBlend mode="normal" in="SourceGraphic" in2="effect1_dropShadow_1018_10065" result="shape"/>
</filter>
</defs>
</svg>
