<svg width="23" height="25" viewBox="0 0 23 25" fill="none" xmlns="http://www.w3.org/2000/svg">
<path d="M16.6217 22C16.2785 21.9995 15.9483 21.8629 15.6979 21.6176L11.81 17.8893C11.7255 17.8073 11.6144 17.7618 11.4991 17.7618C11.3837 17.7618 11.2727 17.8073 11.1881 17.8893L7.3011 21.6176C7.10524 21.8061 6.86113 21.931 6.59855 21.9769C6.33597 22.0229 6.06626 21.988 5.82232 21.8766C5.57837 21.7651 5.37073 21.5818 5.22472 21.3491C5.0787 21.1164 5.00062 20.8443 5 20.566V5.38994C5 4.75609 5.2409 4.1482 5.66969 3.7C6.09849 3.2518 6.68006 3 7.28647 3H15.7135C16.3199 3 16.9015 3.2518 17.3303 3.7C17.7591 4.1482 18 4.75609 18 5.38994V20.5632C18.0022 20.8426 17.9252 21.1165 17.7787 21.3502C17.6322 21.584 17.4228 21.7672 17.1768 21.8767C17.002 21.9578 16.8129 21.9998 16.6217 22ZM11.5 16.8043C11.8447 16.8034 12.1771 16.9382 12.431 17.1819L16.3189 20.9102C16.3843 20.9732 16.4658 21.0149 16.5535 21.0303C16.6412 21.0456 16.7312 21.0339 16.8127 20.9966C16.8941 20.9592 16.9633 20.8979 17.0119 20.8201C17.0605 20.7423 17.0864 20.6513 17.0863 20.5584V5.38994C17.0863 5.00963 16.9417 4.64489 16.6845 4.37597C16.4272 4.10705 16.0782 3.95597 15.7144 3.95597H7.28647C6.92262 3.95597 6.57368 4.10705 6.3164 4.37597C6.05912 4.64489 5.91459 5.00963 5.91459 5.38994V20.5632C5.9145 20.6561 5.94034 20.747 5.98894 20.8249C6.03753 20.9027 6.10678 20.964 6.1882 21.0014C6.26962 21.0387 6.35969 21.0504 6.44737 21.035C6.53506 21.0197 6.61657 20.978 6.68193 20.915L10.5698 17.1771C10.8242 16.9354 11.1562 16.8023 11.5 16.8043Z" fill="currentColor" stroke="currentColor" stroke-width="0.5"/>
</svg>