<svg width="14" height="15" viewBox="0 0 14 15" fill="none" xmlns="http://www.w3.org/2000/svg">
<path d="M6.41666 13.0291V10.7143C6.41666 10.5551 6.47812 10.4025 6.58752 10.29C6.69691 10.1775 6.84529 10.1143 7 10.1143C7.15471 10.1143 7.30308 10.1775 7.41248 10.29C7.52187 10.4025 7.58333 10.5551 7.58333 10.7143V13.0291L7.58041 13.0897C7.56597 13.2377 7.49859 13.3749 7.39134 13.4747C7.28409 13.5745 7.14462 13.6297 7 13.6297C6.85537 13.6297 6.71591 13.5745 6.60866 13.4747C6.50141 13.3749 6.43403 13.2377 6.41958 13.0897L6.41666 13.0291Z" fill="#17D89B"/>
<path d="M9.16592 4.48212L9.42083 3.56412C9.46418 3.40818 9.47174 3.24403 9.44291 3.08458C9.41408 2.92514 9.34966 2.77475 9.25471 2.64527C9.15976 2.5158 9.03688 2.41076 8.89575 2.33844C8.75462 2.26612 8.59909 2.22849 8.44142 2.22852H5.9675C5.76721 2.22849 5.56941 2.2742 5.38837 2.36234C5.20733 2.45047 5.04757 2.57884 4.92062 2.73818C4.79366 2.89752 4.70267 3.08386 4.65422 3.28376C4.60576 3.48365 4.60105 3.69212 4.64042 3.89412C4.65792 3.98412 4.66667 4.07512 4.66667 4.16712V6.49452C4.66667 7.03392 4.48292 7.55652 4.1475 7.97052L3.63767 8.59932C3.51298 8.75331 3.43353 8.94066 3.40861 9.13942C3.3837 9.33818 3.41434 9.54013 3.49697 9.72163C3.5796 9.90312 3.71078 10.0566 3.87516 10.1642C4.03955 10.2718 4.23033 10.329 4.42517 10.3291H9.65883C9.79681 10.3291 9.93218 10.2905 10.0505 10.2175C10.1689 10.1446 10.2657 10.04 10.3308 9.91482C10.3959 9.78968 10.4267 9.64873 10.4201 9.50698C10.4134 9.36523 10.3695 9.228 10.2929 9.10992L9.72125 8.22732C9.46606 7.83468 9.30658 7.38458 9.25633 6.91512L9.09125 5.39052C9.05789 5.08585 9.08306 4.7774 9.16533 4.48272L9.16592 4.48212Z" fill="#17D89B"/>
<path d="M4.1895 6.81422V4.50422C4.1895 4.30322 4.12067 4.07822 3.99408 3.80342C3.92163 3.64773 3.86117 3.48643 3.81325 3.32102C3.65867 2.78162 3.85992 2.31302 4.2 2.02022C4.51267 1.75082 4.93208 1.62842 5.32233 1.62842H7.37158L7.4305 1.63142C7.5744 1.64627 7.7078 1.71558 7.80483 1.8259C7.90185 1.93621 7.95557 2.07966 7.95557 2.22842C7.95557 2.37717 7.90185 2.52062 7.80483 2.63094C7.7078 2.74125 7.5744 2.81056 7.4305 2.82542L7.37158 2.82842H5.32233C5.14558 2.82842 5.00908 2.88782 4.949 2.94002C4.94093 2.94623 4.93367 2.95349 4.92742 2.96162C4.92742 2.96562 4.92878 2.97242 4.9315 2.98202C4.96067 3.08402 5.0015 3.18842 5.047 3.28802C5.19983 3.61802 5.35617 4.03622 5.35617 4.50422V6.81422C5.35617 7.43222 5.09833 7.99682 4.70925 8.41442C4.46332 8.67573 4.23546 8.95441 4.02733 9.24842C3.96083 9.34442 3.94975 9.41042 3.94858 9.44162C3.94774 9.47606 3.95845 9.50974 3.97892 9.53702C4.03083 9.61262 4.18425 9.72902 4.46308 9.72902H7.37158L7.4305 9.73142C7.5744 9.74627 7.7078 9.81558 7.80483 9.9259C7.90185 10.0362 7.95557 10.1797 7.95557 10.3284C7.95557 10.4772 7.90185 10.6206 7.80483 10.7309C7.7078 10.8413 7.5744 10.9106 7.4305 10.9254L7.37158 10.9284H4.4625C3.88733 10.9284 3.33725 10.6872 3.02342 10.2264C2.68508 9.73082 2.69908 9.09422 3.07825 8.54942C3.28592 8.25242 3.54492 7.92842 3.86692 7.58342C4.07575 7.35962 4.1895 7.08362 4.1895 6.81422Z" fill="#17D89B"/>
<path d="M9.8105 6.81422V4.50422C9.8105 4.30322 9.87875 4.07822 10.0059 3.80342C10.0736 3.65822 10.1377 3.49442 10.1867 3.32102C10.3413 2.78162 10.1401 2.31302 9.8 2.02022C9.48733 1.75082 9.06792 1.62842 8.67767 1.62842H6.62842L6.5695 1.63142C6.4256 1.64627 6.2922 1.71558 6.19517 1.8259C6.09815 1.93621 6.04443 2.07966 6.04443 2.22842C6.04443 2.37717 6.09815 2.52062 6.19517 2.63094C6.2922 2.74125 6.4256 2.81056 6.5695 2.82542L6.62842 2.82842H8.67767C8.85442 2.82842 8.99092 2.88782 9.051 2.94002C9.06189 2.94962 9.06908 2.95682 9.07258 2.96162C9.07258 2.96562 9.07122 2.97242 9.0685 2.98202C9.03933 3.08402 8.9985 3.18842 8.953 3.28802C8.80017 3.61802 8.64383 4.03622 8.64383 4.50422V6.81422C8.64383 7.43222 8.90167 7.99682 9.29075 8.41442C9.57658 8.72102 9.8 9.00122 9.97267 9.24842C10.0392 9.34442 10.0502 9.41042 10.0508 9.44162C10.0518 9.47599 10.0413 9.50967 10.0211 9.53702C9.96917 9.61262 9.81575 9.72902 9.53692 9.72902H6.62842L6.5695 9.73142C6.4256 9.74627 6.2922 9.81558 6.19517 9.9259C6.09815 10.0362 6.04443 10.1797 6.04443 10.3284C6.04443 10.4772 6.09815 10.6206 6.19517 10.7309C6.2922 10.8413 6.4256 10.9106 6.5695 10.9254L6.62842 10.9284H9.53692C10.1121 10.9284 10.6622 10.6872 10.976 10.2264C11.3143 9.73082 11.3003 9.09422 10.9212 8.54942C10.6806 8.20884 10.417 7.88605 10.1325 7.58342C9.92367 7.35962 9.8105 7.08362 9.8105 6.81422Z" fill="#17D89B"/>
</svg>
