<svg width="20" height="20" viewBox="0 0 20 20" fill="none" xmlns="http://www.w3.org/2000/svg">
<path d="M10 16.8002C6.24001 16.8002 3.20001 13.7602 3.20001 10.0002C3.20001 6.2402 6.24001 3.2002 10 3.2002C13.76 3.2002 16.8 6.2402 16.8 10.0002C16.8 13.7602 13.76 16.8002 10 16.8002ZM10 4.0002C6.68001 4.0002 4.00001 6.6802 4.00001 10.0002C4.00001 13.3202 6.68001 16.0002 10 16.0002C13.32 16.0002 16 13.3202 16 10.0002C16 6.6802 13.32 4.0002 10 4.0002Z" fill="currentColor"/>
<path d="M6.40002 9.6001H13.6V10.4001H6.40002V9.6001Z" fill="currentColor"/>
<path d="M9.59998 6.3999H10.4V13.5999H9.59998V6.3999Z" fill="currentColor"/>
</svg>
