<svg width="12" height="12" viewBox="0 0 12 12" fill="none" xmlns="http://www.w3.org/2000/svg">
<path d="M9.74883 3.99448L6 7.64839L2.25117 3.99448C2.18422 3.92927 2.09444 3.89277 2.00098 3.89277C1.90751 3.89277 1.81774 3.92927 1.75078 3.99448C1.71818 4.02615 1.69226 4.06404 1.67457 4.10591C1.65687 4.14778 1.64775 4.19277 1.64775 4.23823C1.64775 4.28368 1.65687 4.32868 1.67457 4.37054C1.69226 4.41241 1.71818 4.4503 1.75078 4.48198L5.73867 8.36909C5.80867 8.4371 5.90241 8.47514 6 8.47514C6.09759 8.47514 6.19134 8.4371 6.26133 8.36909L10.2492 4.48198C10.282 4.45029 10.3081 4.41232 10.3259 4.37035C10.3437 4.32837 10.3529 4.28324 10.3529 4.23764C10.3529 4.19205 10.3437 4.14692 10.3259 4.10494C10.3081 4.06296 10.282 4.025 10.2492 3.99331C10.1823 3.92809 10.0925 3.8916 9.99903 3.8916C9.90556 3.8916 9.81579 3.92809 9.74883 3.99331V3.99448Z" fill="currentColor"/>
</svg>
