<svg width="23" height="25" viewBox="0 0 23 25" fill="none" xmlns="http://www.w3.org/2000/svg">
<path d="M5.00005 14.6873C5.00005 14.0165 5.07838 13.3556 5.23505 12.7048C5.39171 12.0548 5.63546 11.4331 5.96629 10.8398C6.01879 10.7481 6.07088 10.6535 6.12254 10.556C6.17504 10.4585 6.23713 10.3677 6.3088 10.2835C6.37113 10.2021 6.44729 10.1323 6.5338 10.0773C6.62675 10.0272 6.7307 10.001 6.8363 10.001C6.94189 10.001 7.04584 10.0272 7.1388 10.0773C7.23293 10.1258 7.31106 10.2005 7.36379 10.2923L8.66254 12.4123C8.72171 12.5098 8.79963 12.5848 8.8963 12.6373C8.99886 12.6918 9.11268 12.7218 9.2288 12.7248C9.32849 12.7292 9.42774 12.7092 9.51794 12.6665C9.60813 12.6238 9.68652 12.5597 9.74629 12.4798C9.83178 12.3672 9.89106 12.237 9.91982 12.0986C9.94858 11.9602 9.9461 11.8171 9.91254 11.6798C9.89133 11.5987 9.86202 11.52 9.82505 11.4448C9.56771 10.8978 9.34885 10.3335 9.17004 9.75604C8.99747 9.1692 8.91197 8.56021 8.91629 7.94854C8.91629 7.12854 9.05296 6.40937 9.32629 5.79104C9.59963 5.17187 9.98046 4.64104 10.4688 4.19854C10.9563 3.75688 11.5259 3.39896 12.1775 3.12479C12.8497 2.84429 13.5506 2.63807 14.2675 2.50979C14.357 2.49359 14.449 2.49753 14.5368 2.52131C14.6246 2.5451 14.706 2.58813 14.775 2.64729C14.925 2.77646 15 2.93562 15 3.12479C15 4.10146 15.1659 5.03229 15.4975 5.91729C15.834 6.80988 16.298 7.64901 16.875 8.40854L17.9588 9.82354C18.3238 10.2985 18.6592 10.7935 18.965 11.3085C19.2709 11.8227 19.5184 12.3565 19.7075 12.9098C19.8959 13.464 19.9934 14.0565 20 14.6873C20 15.384 19.9155 16.061 19.7463 16.7185C19.5799 17.3663 19.3303 17.9898 19.0038 18.5735C18.6788 19.1535 18.2946 19.681 17.8513 20.156C17.4088 20.631 16.9075 21.0444 16.3475 21.396C15.7875 21.7477 15.1855 22.0181 14.5413 22.2073C13.8971 22.3965 13.2167 22.494 12.5 22.4998C11.8096 22.5029 11.1222 22.4073 10.4588 22.216C9.82485 22.0321 9.22011 21.7594 8.66254 21.406C8.10985 21.0552 7.60158 20.6388 7.14879 20.166C6.69289 19.691 6.30504 19.1551 5.9963 18.5735C5.68223 17.9851 5.43647 17.3628 5.2638 16.7185C5.0864 16.0561 4.9977 15.3731 5.00005 14.6873Z" fill="currentColor"/>
</svg>