<svg width="48" height="48" viewBox="0 0 48 48" fill="none" xmlns="http://www.w3.org/2000/svg">
<rect width="48" height="48" rx="24" fill="#E7E7E7"/>
<path d="M17.75 30.5C17.75 30.5 16.5 30.5 16.5 29.25C16.5 28 17.75 24.25 24 24.25C30.25 24.25 31.5 28 31.5 29.25C31.5 30.5 30.25 30.5 30.25 30.5H17.75ZM24 23C24.9946 23 25.9484 22.6049 26.6517 21.9017C27.3549 21.1984 27.75 20.2446 27.75 19.25C27.75 18.2554 27.3549 17.3016 26.6517 16.5983C25.9484 15.8951 24.9946 15.5 24 15.5C23.0054 15.5 22.0516 15.8951 21.3483 16.5983C20.6451 17.3016 20.25 18.2554 20.25 19.25C20.25 20.2446 20.6451 21.1984 21.3483 21.9017C22.0516 22.6049 23.0054 23 24 23Z" fill="#8D8D8D"/>
</svg>
