<svg width="12" height="16" viewBox="0 0 12 16" fill="none" xmlns="http://www.w3.org/2000/svg">
<path fill-rule="evenodd" clip-rule="evenodd" d="M5.75 14.9991L6.30213 14.3564C6.92863 13.6158 7.49242 12.911 7.9935 12.2421L8.40737 11.678C10.1358 9.27298 11 7.36477 11 5.95343C11 2.94152 8.64975 0.5 5.75 0.5C2.85025 0.5 0.5 2.94152 0.5 5.95343C0.5 7.36477 1.36421 9.27328 3.09263 11.6789L3.5065 12.243C4.22185 13.1897 4.97018 14.1084 5.75 14.9991Z" stroke="currentColor" stroke-linecap="round" stroke-linejoin="round"/>
<path d="M5.75006 8.18324C6.95818 8.18324 7.93756 7.17148 7.93756 5.92341C7.93756 4.67534 6.95818 3.66357 5.75006 3.66357C4.54194 3.66357 3.56256 4.67534 3.56256 5.92341C3.56256 7.17148 4.54194 8.18324 5.75006 8.18324Z" stroke="currentColor" stroke-linecap="round" stroke-linejoin="round"/>
</svg>
