<svg width="25" height="25" viewBox="0 0 25 25" fill="none" xmlns="http://www.w3.org/2000/svg">
<path d="M6.47918 7.58329C6.34118 7.43519 6.26606 7.23931 6.26963 7.03691C6.2732 6.83452 6.35519 6.64141 6.49833 6.49827C6.64147 6.35513 6.83458 6.27314 7.03697 6.26957C7.23937 6.26599 7.43525 6.34112 7.58335 6.47912L12.5 11.3937L17.4156 6.47912C17.4872 6.40237 17.5734 6.3408 17.6692 6.2981C17.7651 6.2554 17.8685 6.23244 17.9734 6.23059C18.0783 6.22874 18.1825 6.24804 18.2798 6.28733C18.3771 6.32662 18.4655 6.38511 18.5396 6.45929C18.6138 6.53348 18.6723 6.62185 18.7116 6.71913C18.7509 6.8164 18.7702 6.9206 18.7683 7.0255C18.7665 7.1304 18.7435 7.23385 18.7008 7.32968C18.6581 7.42552 18.5966 7.51177 18.5198 7.58329L13.6042 12.5L18.5188 17.4156C18.5955 17.4871 18.6571 17.5734 18.6998 17.6692C18.7425 17.765 18.7654 17.8685 18.7673 17.9734C18.7692 18.0783 18.7499 18.1825 18.7106 18.2797C18.6713 18.377 18.6128 18.4654 18.5386 18.5396C18.4644 18.6138 18.376 18.6723 18.2788 18.7115C18.1815 18.7508 18.0773 18.7701 17.9724 18.7683C17.8675 18.7664 17.764 18.7435 17.6682 18.7008C17.5724 18.6581 17.4861 18.5965 17.4146 18.5197L12.499 13.6052L7.58335 18.5197C7.51183 18.5965 7.42558 18.6581 7.32974 18.7008C7.23391 18.7435 7.13046 18.7664 7.02556 18.7683C6.92066 18.7701 6.81647 18.7508 6.71919 18.7115C6.62191 18.6723 6.53354 18.6138 6.45935 18.5396C6.38517 18.4654 6.32668 18.377 6.28739 18.2797C6.2481 18.1825 6.2288 18.0783 6.23065 17.9734C6.2325 17.8685 6.25546 17.765 6.29816 17.6692C6.34086 17.5734 6.40243 17.4871 6.47918 17.4156L11.3938 12.5L6.47918 7.58329Z" fill="currentColor"/>
</svg>
