<svg width="25" height="25" viewBox="0 0 25 25" fill="none" xmlns="http://www.w3.org/2000/svg">
<path d="M6.521 19.979C5.84033 19.2983 5.5 18.472 5.5 17.5V8.979C4.91667 8.76233 4.43767 8.432 4.063 7.988C3.68833 7.544 3.50067 7.05 3.5 6.506C3.5 5.81 3.743 5.21833 4.229 4.731C4.71433 4.24367 5.304 4 5.998 4C6.692 4 7.28233 4.24367 7.769 4.731C8.25567 5.21833 8.49933 5.81033 8.5 6.507C8.5 7.04967 8.31267 7.543 7.938 7.987C7.56333 8.431 7.084 8.762 6.5 8.98V17.5C6.5 18.1873 6.74533 18.776 7.236 19.266C7.726 19.7553 8.31533 20 9.004 20C9.69267 20 10.2807 19.7553 10.768 19.266C11.2553 18.7767 11.4993 18.188 11.5 17.5V7.5C11.5 6.528 11.8403 5.70167 12.521 5.021C13.2017 4.34033 14.028 4 15 4C15.972 4 16.7983 4.34033 17.479 5.021C18.1597 5.70167 18.5 6.528 18.5 7.5V16.021C19.0833 16.2377 19.5627 16.568 19.938 17.012C20.3133 17.456 20.5007 17.9497 20.5 18.493C20.5 19.1897 20.2573 19.7817 19.772 20.269C19.286 20.7563 18.696 21 18.002 21C17.308 21 16.7177 20.7563 16.231 20.269C15.7443 19.7817 15.5007 19.19 15.5 18.494C15.5 17.9507 15.6877 17.4527 16.063 17C16.4383 16.5473 16.9173 16.221 17.5 16.021V7.5C17.5 6.81267 17.255 6.224 16.765 5.734C16.2743 5.24467 15.6847 5 14.996 5C14.3073 5 13.7193 5.245 13.232 5.735C12.7447 6.225 12.5007 6.81333 12.5 7.5V17.5C12.5 18.472 12.1597 19.2983 11.479 19.979C10.7983 20.6597 9.972 21 9 21C8.028 21 7.20167 20.6597 6.521 19.979Z" fill="currentColor"/>
</svg>