<svg width="32" height="32" viewBox="0 0 32 32" fill="none" xmlns="http://www.w3.org/2000/svg">
<rect width="32" height="32" rx="16" fill="#E7E7E7"/>
<path d="M9.75 22.5C9.75 22.5 8.5 22.5 8.5 21.25C8.5 20 9.75 16.25 16 16.25C22.25 16.25 23.5 20 23.5 21.25C23.5 22.5 22.25 22.5 22.25 22.5H9.75ZM16 15C16.9946 15 17.9484 14.6049 18.6517 13.9017C19.3549 13.1984 19.75 12.2446 19.75 11.25C19.75 10.2554 19.3549 9.30161 18.6517 8.59835C17.9484 7.89509 16.9946 7.5 16 7.5C15.0054 7.5 14.0516 7.89509 13.3483 8.59835C12.6451 9.30161 12.25 10.2554 12.25 11.25C12.25 12.2446 12.6451 13.1984 13.3483 13.9017C14.0516 14.6049 15.0054 15 16 15Z" fill="#8D8D8D"/>
</svg>
