<svg width="15" height="15" viewBox="0 0 15 15" fill="none" xmlns="http://www.w3.org/2000/svg">
<path d="M7.10317 15V13.8405C5.44974 13.6854 4.08466 13.0696 3.00794 11.9929C1.93069 10.9156 1.31481 9.55026 1.16032 7.89682H0V7.10317H1.16032C1.31481 5.44974 1.93069 4.08466 3.00794 3.00794C4.08519 1.93122 5.45026 1.31534 7.10317 1.16032V0H7.89682V1.16032C9.55026 1.31481 10.9153 1.93069 11.9921 3.00794C13.0688 4.08519 13.6849 5.45026 13.8405 7.10317H15V7.89682H13.8405C13.6854 9.55026 13.0696 10.9153 11.9929 11.9921C10.9156 13.0693 9.55026 13.6854 7.89682 13.8405V15H7.10317ZM11.4286 11.4286C12.5132 10.3439 13.0556 9.03439 13.0556 7.5C13.0556 5.96561 12.5132 4.65608 11.4286 3.57143C10.3439 2.48677 9.03439 1.94444 7.5 1.94444C5.96561 1.94444 4.65608 2.48677 3.57143 3.57143C2.48677 4.65608 1.94444 5.96561 1.94444 7.5C1.94444 9.03439 2.48677 10.3439 3.57143 11.4286C4.65608 12.5132 5.96561 13.0556 7.5 13.0556C9.03439 13.0556 10.3439 12.5132 11.4286 11.4286ZM5.81508 9.18492C5.35106 8.7209 5.11905 8.15926 5.11905 7.5C5.11905 6.84074 5.35106 6.2791 5.81508 5.81508C6.2791 5.35106 6.84074 5.11905 7.5 5.11905C8.15926 5.11905 8.7209 5.35106 9.18492 5.81508C9.64894 6.2791 9.88095 6.84074 9.88095 7.5C9.88095 8.15926 9.64894 8.7209 9.18492 9.18492C8.7209 9.64894 8.15926 9.88095 7.5 9.88095C6.84074 9.88095 6.2791 9.64894 5.81508 9.18492ZM8.62143 8.62143C8.93201 8.31032 9.0873 7.93651 9.0873 7.5C9.0873 7.06349 8.93201 6.68995 8.62143 6.37936C8.31085 6.06878 7.93704 5.91323 7.5 5.9127C7.06296 5.91217 6.68942 6.06772 6.37936 6.37936C6.06931 6.691 5.91376 7.06455 5.9127 7.5C5.91164 7.93545 6.0672 8.30926 6.37936 8.62143C6.69153 8.9336 7.06508 9.08889 7.5 9.0873C7.93492 9.08571 8.30873 8.93042 8.62143 8.62143Z" fill="currentColor"/>
</svg>
